<svg id="clock-circular-outline" xmlns="http://www.w3.org/2000/svg" width="15.487" height="15.487" viewBox="0 0 15.487 15.487">
  <g id="Group_38" data-name="Group 38">
    <path id="Path_214" data-name="Path 214" d="M7.743,0a7.743,7.743,0,1,0,7.743,7.743A7.752,7.752,0,0,0,7.743,0Zm0,13.839a6.1,6.1,0,1,1,6.1-6.1A6.1,6.1,0,0,1,7.743,13.839Z" fill="#fff"/>
    <path id="Path_215" data-name="Path 215" d="M48.821,21.652h-3.48V17.468a.638.638,0,0,0-1.275,0v4.822a.638.638,0,0,0,.638.638h4.117a.638.638,0,0,0,0-1.275Z" transform="translate(-37.042 -14.147)" fill="#fff"/>
  </g>
</svg>
