<svg xmlns="http://www.w3.org/2000/svg" width="17.457" height="17.184" viewBox="0 0 17.457 17.184">
  <path id="X-sprite" d="M475.466,369.179a1.933,1.933,0,0,1-1.281-.674q-2.548-2.5-5.091-5c-.148-.146-.217-.164-.376-.007q-2.555,2.527-5.126,5.037a1.889,1.889,0,0,1-1.7.622,2.113,2.113,0,0,1-1.72-2.08,1.69,1.69,0,0,1,.372-.961,3.738,3.738,0,0,1,.354-.386q2.517-2.472,5.039-4.938c.153-.149.167-.22.005-.377q-2.548-2.478-5.079-4.973a1.9,1.9,0,0,1-.69-1.417,2.007,2.007,0,0,1,1.209-1.82,1.728,1.728,0,0,1,2.018.284c.08.068.156.14.231.213l4.982,4.885c.291.285.29.285.59-.009q2.5-2.453,5-4.906a2.011,2.011,0,0,1,1.457-.668,2.07,2.07,0,0,1,1.907,2.5,2.183,2.183,0,0,1-.635.946q-2.515,2.474-5.04,4.938c-.163.159-.187.239-.008.413q2.53,2.458,5.042,4.936a2.286,2.286,0,0,1,.616.9,1.961,1.961,0,0,1-.87,2.217A2.033,2.033,0,0,1,475.466,369.179Z" transform="translate(-460.172 -352)" fill="#fff"/>
</svg>
