X-sprite<svg id="information" xmlns="http://www.w3.org/2000/svg" width="14" height="14" viewBox="0 0 14 14">
  <path id="Path_483" data-name="Path 483" d="M7,0a7,7,0,1,0,7,7A7.008,7.008,0,0,0,7,0ZM7,12.727A5.727,5.727,0,1,1,12.727,7,5.734,5.734,0,0,1,7,12.727Z" fill="#fff"/>
  <path id="Path_484" data-name="Path 484" d="M145.85,70a.848.848,0,1,0,.848.849A.85.85,0,0,0,145.85,70Z" transform="translate(-138.85 -67.03)" fill="#fff"/>
  <path id="Path_485" data-name="Path 485" d="M150.636,140a.636.636,0,0,0-.636.636v3.818a.636.636,0,0,0,1.273,0v-3.818A.636.636,0,0,0,150.636,140Z" transform="translate(-143.636 -134.061)" fill="#fff"/>
</svg>
