<svg xmlns="http://www.w3.org/2000/svg" width="21" height="21" viewBox="0 0 21 21">
  <g id="FlagActive" transform="translate(-6.666 -6)">
    <rect id="Rectangle_2" data-name="Rectangle 2" width="21" height="21" transform="translate(6.666 6)" fill="#fff"/>
    <path id="Path_202" data-name="Path 202" d="M23.247,12.113c-.14.214-3.587,5.294-7.893,3.987A6.339,6.339,0,0,0,10,16.633V8.7a9.207,9.207,0,0,1,6.12,1.393,8.547,8.547,0,0,0,6.58,1.26.5.5,0,0,1,.547.76Z" transform="translate(1.167 0.5)" fill="#e5777b" stroke="#212529" stroke-width="0.5"/>
    <path id="Path_203" data-name="Path 203" d="M10,8.667V23.334a.667.667,0,1,1-1.334,0V8.667a.667.667,0,0,1,1.334,0Z" transform="translate(1.167 0.5)" fill="#212529"/>
  </g>
</svg>
