<svg xmlns="http://www.w3.org/2000/svg" width="32.23" height="32.23" viewBox="0 0 32.23 32.23"><g transform="translate(-1685 -1038)"><g transform="translate(1138 -446)"><rect width="32.23" height="32.23" rx="16" transform="translate(547 1484)" fill="#fff"/><path d="M1365.67-207.723c1.339,0,2.679.009,4.018-.005a.762.762,0,0,1,.827.57q1.565,4.414,3.149,8.823c.174.488.35.975.516,1.465.146.43-.037.694-.485.714-.055,0-.109,0-.164,0h-22.018c-.643,0-.812-.227-.6-.835q1.419-4.01,2.85-8.015c.251-.706.536-1.4.755-2.118a.776.776,0,0,1,.878-.6c2.706.01,5.412.005,8.119.005h2.151Zm-7.437,7.747a2.6,2.6,0,0,0,2.13,1.127,2.582,2.582,0,0,0,2.118-1.109c1.948,1.5,2.713,1.5,4.451-.084a1.517,1.517,0,0,0,.174.323,2.463,2.463,0,0,0,2.2.839,2.646,2.646,0,0,0,2.282-2.591c-.007-.243-.1-.432-.363-.468-.284-.038-.433.118-.486.382-.032.161-.053.323-.089.483a1.648,1.648,0,0,1-1.687,1.323,1.67,1.67,0,0,1-1.626-1.353,2.015,2.015,0,0,0-.114-.556.549.549,0,0,0-.394-.27c-.132,0-.3.165-.374.3a1.755,1.755,0,0,0-.1.478,1.683,1.683,0,0,1-1.183,1.347,1.6,1.6,0,0,1-1.666-.407,1.863,1.863,0,0,1-.544-1.246c-.016-.261-.145-.5-.449-.488s-.423.213-.43.5a1.085,1.085,0,0,1-.006.123,1.827,1.827,0,0,1-1.288,1.545,1.612,1.612,0,0,1-1.8-.677,3.02,3.02,0,0,1-.34-.986c-.06-.269-.152-.495-.443-.5-.317-.006-.444.221-.456.518a1.586,1.586,0,0,1-.011.164,1.716,1.716,0,0,1-2.6,1.27,1.9,1.9,0,0,1-.841-1.52c-.036-.292-.212-.5-.481-.418a.643.643,0,0,0-.365.491,2.572,2.572,0,0,0,1.485,2.327,2.414,2.414,0,0,0,2.593-.239A8.6,8.6,0,0,0,1358.233-199.976Zm.739-3.631a2.341,2.341,0,0,0,1.754.872,2.325,2.325,0,0,0,1.786-.911,2.431,2.431,0,0,0,1.8.907,2.307,2.307,0,0,0,1.79-.891c.094.083.176.152.254.226a2.172,2.172,0,0,0,2.026.606,2.278,2.278,0,0,0,1.752-2.193c-.01-.238-.087-.43-.37-.453a.4.4,0,0,0-.467.353c-.025.12-.038.243-.062.363a1.362,1.362,0,0,1-1.334,1.111,1.359,1.359,0,0,1-1.3-1.147c-.024-.134-.01-.3-.087-.393a.7.7,0,0,0-.44-.262c-.119,0-.254.186-.352.313-.052.067-.039.184-.059.277a1.389,1.389,0,0,1-1.334,1.218,1.369,1.369,0,0,1-1.343-1.292c-.043-.289-.115-.552-.482-.541s-.379.275-.418.545a1.4,1.4,0,0,1-1.36,1.288,1.385,1.385,0,0,1-1.339-1.3c-.039-.273-.1-.534-.443-.531s-.423.25-.457.554a1.353,1.353,0,0,1-1.881,1.158,1.475,1.475,0,0,1-.839-1.312c-.027-.271-.195-.475-.458-.385-.17.059-.4.31-.392.46a2.2,2.2,0,0,0,3.167,1.99A8.155,8.155,0,0,0,1358.971-203.607Z" transform="translate(-799.415 1696.724)" fill="#64a175"/><path d="M1374.714-178.944a.389.389,0,0,1,.389.389v.073q0,3.956,0,7.912c0,.7-.122.823-.8.824q-2.4,0-4.8,0h-.067a.388.388,0,0,1-.375-.389c0-.064,0-.127,0-.189-.015-1.666.04-3.337-.064-5a2.71,2.71,0,0,0-3.279-2.492,2.927,2.927,0,0,0-2.18,2.92c-.009,1.531,0,3.061,0,4.592v.168a.39.39,0,0,1-.38.389h-.041q-2.419,0-4.837,0c-.637,0-.764-.131-.765-.77q0-4.018,0-8.036v0a.389.389,0,0,1,.388-.389Zm-13.969,3.789h0c0,.382-.011.765,0,1.146a.423.423,0,0,0,.469.453.422.422,0,0,0,.464-.458q.013-1.1,0-2.21a.444.444,0,0,0-.471-.5c-.322,0-.459.211-.466.508C1360.738-175.864,1360.745-175.51,1360.745-175.155Zm11.452.058c0-.369,0-.738,0-1.107,0-.3-.131-.511-.452-.525a.452.452,0,0,0-.5.485q-.029,1.126.007,2.253a.427.427,0,0,0,.491.436.431.431,0,0,0,.449-.477C1372.2-174.386,1372.2-174.741,1372.2-175.1Z" transform="translate(-803.198 1680.438)" fill="#64a175"/></g></g></svg>