<svg xmlns="http://www.w3.org/2000/svg" width="33.598" height="33.598" viewBox="0 0 33.598 33.598"><g transform="translate(-1905 -1038)"><g transform="translate(1138 -446)"><rect width="33.598" height="33.598" rx="16.799" transform="translate(767 1484)" fill="#fff"/><g transform="translate(773.169 1488.134)"><path d="M542.942,110.9c0-.79-.006-1.524,0-2.258a8.343,8.343,0,0,0-2.422-6.011,9.56,9.56,0,0,1,5.408-16.09,9.8,9.8,0,0,1,10.7,6.525q1.174,3.433,2.329,6.872c.246.728-.036,1.1-.82,1.105h-2.384c-.01.19-.027.351-.027.512,0,1.3,0,2.6,0,3.907a2.141,2.141,0,0,1-2.388,2.384h-1.81V110.9ZM547.387,89.5c-.3.036-.763.061-1.212.146a6.5,6.5,0,0,0-4.464,9.739,2,2,0,0,0,3.012.591,9.686,9.686,0,0,0,.843-.777,15.353,15.353,0,0,1,4.966-3.406c.654-.259,1.334-.456,1.976-.74a1.693,1.693,0,0,0,1-2.3,4.176,4.176,0,0,0-.916-1.405A7.377,7.377,0,0,0,547.387,89.5Z" transform="translate(-537.784 -86.423)" fill="#64a175"/></g></g></g></svg>