<svg xmlns="http://www.w3.org/2000/svg" width="33.598" height="33.598" viewBox="0 0 33.598 33.598"><g transform="translate(-2051 -1038)"><g transform="translate(1138 -446)"><rect width="33.598" height="33.598" rx="16.799" transform="translate(913 1484)" fill="#fff"/><g transform="translate(918.504 1489.487)"><path d="M881.448,111.3H860.929V90.782a1.368,1.368,0,1,1,2.736,0v17.785h17.782a1.368,1.368,0,0,1,0,2.736Z" transform="translate(-860.929 -89.412)" fill="#64a175"/><path d="M888.5,89.864l-6.908,2.3c-.357.117-.4.387-.079.6l2.57,1.713-3.253,4.067-2.736-2.736-5.743,7.008a1.368,1.368,0,0,0,2.134,1.71l3.833-4.622,2.736,2.736L886.366,96l2.213,1.477c.312.208.569.073.569-.3v-6.84a.464.464,0,0,0-.419-.5A.469.469,0,0,0,888.5,89.864Z" transform="translate(-867.263 -89.647)" fill="#64a175"/></g></g></g></svg>