<svg xmlns="http://www.w3.org/2000/svg" width="33.681" height="33.681" viewBox="0 0 33.681 33.681"><g transform="translate(-693 -1484)"><rect width="33.681" height="33.681" transform="translate(693 1484)" fill="none"/><path d="M394.1,91.475c-2.555-2.3-5.657-3.2-9.449-3.29-.584.075-1.581.14-2.55.34a11.711,11.711,0,0,0-7.4,4.4,7.4,7.4,0,0,0-1.182,7,8.546,8.546,0,0,0,3.1,4.24.477.477,0,0,1,.223.6c-.279.91-.533,1.827-.794,2.742s-.526,1.858-.787,2.787a.577.577,0,0,0,.19.714c.278.184.505.028.725-.133.056-.041.108-.088.162-.133,1.591-1.331,3.186-2.656,4.767-4a.822.822,0,0,1,.771-.184,15.136,15.136,0,0,0,4.927.257,12.845,12.845,0,0,0,7.288-3.119,8.06,8.06,0,0,0,2.839-5.1A7.9,7.9,0,0,0,394.1,91.475Zm-9.049,8.172a1.531,1.531,0,0,1-1.532-1.552,1.547,1.547,0,0,1,1.536-1.555,1.554,1.554,0,1,1,0,3.108Zm5.182-3.108a1.554,1.554,0,1,1,.034,3.108,1.554,1.554,0,0,1-.034-3.108ZM379.869,99.65a1.556,1.556,0,0,1-.032-3.111,1.556,1.556,0,1,1,.032,3.111Z" transform="translate(325.002 1401.405)" fill="#d1e3d6"/></g></svg>