<svg xmlns="http://www.w3.org/2000/svg" width="33.598" height="33.598" viewBox="0 0 33.598 33.598"><g transform="translate(-620 -1484)"><rect width="33.598" height="33.598" transform="translate(620 1484)" fill="none"/><g transform="translate(630.119 1487.605)"><path d="M218.1,111.969a.75.75,0,0,1,.705-.5c1.516,0,3.016,0,4.515.013.1,0,.257.172.3.3q1.427,3.78,2.832,7.569c.231.618.466,1.235.694,1.854a1.141,1.141,0,0,1-.443,1.456,2.3,2.3,0,0,1-1.419.457q-4.331,0-8.662,0a2.279,2.279,0,0,1-1.362-.416,1.183,1.183,0,0,1-.487-1.535q1.257-3.489,2.519-6.976Z" transform="translate(-215.136 -102.204)" fill="#d1e3d6"/><path d="M222.419,92.454v2.63a.313.313,0,0,0,.313.313h5.123a.313.313,0,0,1,.313.313v.9a.313.313,0,0,1-.313.313h-7.662a.313.313,0,0,1-.313-.313v-.885a.313.313,0,0,1,.313-.313h0a.313.313,0,0,0,.313-.313V92.475a.313.313,0,0,0-.3-.313l-.063,0a.315.315,0,0,1-.294-.254c-.062-.317.021-.422.369-.667l3.632-2.569a.313.313,0,0,1,.362,0c1.286.912,2.568,1.807,3.822,2.74a.571.571,0,0,1,.151.362.314.314,0,0,1-.308.371h-5.146A.313.313,0,0,0,222.419,92.454Z" transform="translate(-218.207 -88.611)" fill="#d1e3d6"/><path d="M246.926,95.738V99.5a.567.567,0,0,1-.711.549l-6.853-1.789a.565.565,0,0,1-.424-.541,1.941,1.941,0,0,1,.023-.337c.017-.1.18-.217.3-.251,1.563-.446,3.13-.877,4.695-1.313.744-.207,1.486-.415,2.252-.629A.567.567,0,0,1,246.926,95.738Z" transform="translate(-229.566 -92.511)" fill="#d1e3d6"/><path d="M214.03,132.693a1.931,1.931,0,0,1,1.557.68c.112.1.215.218.335.313a.856.856,0,0,0,1.128-.03c.159-.14.311-.289.463-.436a2.1,2.1,0,0,1,2.85.014c.141.141.291.274.441.406a.856.856,0,0,0,1.208-.01c.1-.094.2-.2.3-.3a2.13,2.13,0,0,1,3.091,0c.115.118.228.239.354.345a.853.853,0,0,0,1.129-.006,5.489,5.489,0,0,0,.442-.405,2.083,2.083,0,0,1,2.872-.043,1.713,1.713,0,0,0,1.391.7c.042,0,.122.022.126.045a3.647,3.647,0,0,1,.118.867c-.007.108-.248.272-.4.287a1.952,1.952,0,0,1-1.612-.56c-.161-.155-.324-.308-.5-.451a.814.814,0,0,0-1.094.009c-.126.106-.25.215-.369.328a2.069,2.069,0,0,1-3.1,0c-.128-.121-.252-.248-.39-.356a.807.807,0,0,0-1.037,0c-.229.183-.435.4-.663.58a2.035,2.035,0,0,1-2.7-.1c-.163-.152-.325-.307-.495-.452a.818.818,0,0,0-1.094-.013c-.128.1-.249.215-.369.328a2.075,2.075,0,0,1-3.154-.026c-.068-.065-.132-.135-.2-.2a.877.877,0,0,0-1.318-.017c-.2.18-.391.375-.6.544a2.02,2.02,0,0,1-1.464.393.345.345,0,0,1-.357-.393q0-.229,0-.459a.319.319,0,0,1,.371-.363,1.388,1.388,0,0,0,1.086-.493A1.911,1.911,0,0,1,214.03,132.693Z" transform="translate(-215.423 -109.691)" fill="#d1e3d6"/></g></g></svg>