<svg xmlns="http://www.w3.org/2000/svg" width="30.44" height="31.259" viewBox="0 0 30.44 31.259"><g transform="translate(-6.71)"><g transform="translate(6.71)"><path d="M36.623,19.055,33.75,16.808a11.314,11.314,0,0,0,.068-1.18,10.972,10.972,0,0,0-.068-1.18L36.626,12.2a1.409,1.409,0,0,0,.34-1.795l-2.988-5.17a1.385,1.385,0,0,0-1.728-.621l-3.39,1.361a11.624,11.624,0,0,0-2.036-1.181l-.516-3.6A1.383,1.383,0,0,0,24.927,0H18.936a1.38,1.38,0,0,0-1.378,1.188L17.041,4.8a11.983,11.983,0,0,0-2.032,1.181l-3.4-1.365a1.413,1.413,0,0,0-1.715.611L6.9,10.4a1.4,1.4,0,0,0,.339,1.8l2.873,2.247a10.305,10.305,0,0,0,0,2.359L7.238,19.058A1.409,1.409,0,0,0,6.9,20.853l2.988,5.17a1.382,1.382,0,0,0,1.728.621l3.39-1.361a11.726,11.726,0,0,0,2.034,1.181l.516,3.595a1.382,1.382,0,0,0,1.381,1.2h5.991a1.381,1.381,0,0,0,1.379-1.188l.517-3.608a12.04,12.04,0,0,0,2.032-1.183l3.4,1.365a1.4,1.4,0,0,0,.511.1,1.375,1.375,0,0,0,1.2-.706l3-5.2A1.406,1.406,0,0,0,36.623,19.055ZM21.931,20.84a5.21,5.21,0,1,1,5.21-5.21A5.215,5.215,0,0,1,21.931,20.84Z" transform="translate(-6.71)" fill="#80A886"/></g></g></svg>