<svg xmlns="http://www.w3.org/2000/svg" width="33.598" height="33.598" viewBox="0 0 33.598 33.598"><g transform="translate(-1978 -1038)"><g transform="translate(1138 -446)"><rect width="33.598" height="33.598" rx="16.799" transform="translate(840 1484)" fill="#fff"/><g transform="translate(849.574 1488.828)"><g transform="translate(0 0)"><path d="M711.415,110.883a.247.247,0,0,0,.324-.352,5.676,5.676,0,0,1-.327-5.625c1.875-4.192,3.016-6.362,3.016-6.362a15.083,15.083,0,0,0,2.252,4.785c1.583,2.168,2.45,4.9,1.053,7.166a.247.247,0,0,0,.323.351,7.009,7.009,0,0,0,3.888-6.19,12.077,12.077,0,0,0-.644-4.5,8.8,8.8,0,0,0-2.287-4.027.248.248,0,0,0-.41.2c.161,2.607-.819,3.268-1.38,1.778a9.121,9.121,0,0,1-.353-2.88,9.845,9.845,0,0,0-1.942-5.981,6.784,6.784,0,0,0-1.218-1.245.248.248,0,0,0-.4.214c.1,1.415.009,5.473-3.549,10.318-3.227,4.5-1.977,7.948-1.533,8.884A7.318,7.318,0,0,0,711.415,110.883Z" transform="translate(-707.615 -87.957)" fill="#64a175"/></g></g></g></g></svg>