<svg xmlns="http://www.w3.org/2000/svg" width="35" height="35" viewBox="0 0 35 35">
  <g id="questionmark-button" transform="translate(-364 -40)">
    <circle id="Ellipse_1" data-name="Ellipse 1" cx="17.5" cy="17.5" r="17.5" transform="translate(364 40)" fill="#fff"/>
    <g id="Ellipse_430" data-name="Ellipse 430" transform="translate(364 40)" fill="none" stroke="#64a175" stroke-width="3">
      <circle cx="17.5" cy="17.5" r="17.5" stroke="none"/>
      <circle cx="17.5" cy="17.5" r="16" fill="none"/>
    </g>
    <g id="_" data-name=" " transform="translate(35.102 -485.465)">
      <g id="Group_1140" data-name="Group 1140" transform="translate(340.652 532.124)">
        <path id="Path_334" data-name="Path 334" d="M342.349,533.748a6.181,6.181,0,0,1,4.505-1.624,6.849,6.849,0,0,1,4.374,1.287,4.43,4.43,0,0,1,1.624,3.686,4.753,4.753,0,0,1-.38,1.96,5.463,5.463,0,0,1-.907,1.433,16.93,16.93,0,0,1-1.433,1.375,11.1,11.1,0,0,0-1.8,1.858,3.439,3.439,0,0,0-.6,2.062h-2.925a5.494,5.494,0,0,1,.351-2.048,5.235,5.235,0,0,1,.834-1.448,14.133,14.133,0,0,1,1.331-1.331,10.058,10.058,0,0,0,1.463-1.58,2.9,2.9,0,0,0,.468-1.7,2.055,2.055,0,0,0-.717-1.711,3.144,3.144,0,0,0-2-.57,2.657,2.657,0,0,0-2.926,2.838h-2.955a6.069,6.069,0,0,1,1.693-4.487Zm5.31,15.432a2.05,2.05,0,0,1,.57,1.492,2.137,2.137,0,0,1-.57,1.536,1.914,1.914,0,0,1-1.448.6,1.857,1.857,0,0,1-1.419-.614,2.151,2.151,0,0,1-.57-1.521,2.05,2.05,0,0,1,.57-1.492,1.9,1.9,0,0,1,1.419-.585A1.937,1.937,0,0,1,347.659,549.18Z" transform="translate(-340.652 -532.124)" fill="#64a175"/>
      </g>
    </g>
  </g>
</svg>
