<svg xmlns="http://www.w3.org/2000/svg" width="20.004" height="16.514" viewBox="0 0 20.004 16.514"><g transform="translate(-854.192 -449.607)"><path d="M857.047,454.969a4.093,4.093,0,0,1,.484.455c1.1,1.42,2.188,2.849,3.283,4.272.435.566.6.573,1.09.053l9.109-9.722c.523-.558.591-.556,1.156-.024s1.142,1.067,1.711,1.6c.4.381.421.571.057.96q-6.2,6.638-12.4,13.27c-.36.385-.628.379-.944-.033q-3.11-4.058-6.211-8.124c-.242-.316-.282-.587.065-.85.729-.553,1.451-1.114,2.181-1.664A2.563,2.563,0,0,1,857.047,454.969Z" fill="#64a175"/></g></svg>