<svg xmlns="http://www.w3.org/2000/svg" width="112.001" height="112.001" viewBox="0 0 112.001 112.001"><g transform="translate(-211.999 -220.999)"><g transform="translate(211.999 220.999)"><g transform="translate(0)"><path d="M8.872,103.129V8.872H56V0H0V112H56v-8.872Z" transform="translate(0)" fill="#64a175"/><rect width="46.351" height="92.701" transform="translate(9.65 9.65)" fill="#64a175"/><g transform="translate(56.001)"><path d="M216,0V8.872h47.129v94.257H216V112h56V0Z" transform="translate(-215.999)" fill="#fdf78b"/><rect width="46.351" height="92.701" transform="translate(0 9.65)" fill="#fdf78b"/></g><path d="M34.221,128.478H81.349V127.7H35V35H81.349v-.778H34.221Z" transform="translate(-25.349 -25.349)" fill="#fff"/><path d="M262.35,35v92.7H216v.778h47.129V34.221H216V35Z" transform="translate(-159.999 -25.349)" fill="#64a175"/></g><g transform="translate(19.422 35.801)"><path d="M99.285,138.088l.313,12.868H98.43a13.18,13.18,0,0,0-4.057-7.787,10.2,10.2,0,0,0-6.99-2.947,6.545,6.545,0,0,0-4.6,1.552,4.724,4.724,0,0,0-1.694,3.573,4.341,4.341,0,0,0,.6,2.277,9.671,9.671,0,0,0,2.648,2.648,59.615,59.615,0,0,0,6.178,3.331q6.776,3.331,9.139,6.292a10.646,10.646,0,0,1,2.334,6.776A10.956,10.956,0,0,1,98.217,175a13.56,13.56,0,0,1-9.58,3.488,15.489,15.489,0,0,1-3.445-.37,26.062,26.062,0,0,1-4.071-1.395,6.164,6.164,0,0,0-2.249-.57,2.79,2.79,0,0,0-1.566.57,3.981,3.981,0,0,0-1.338,1.736H74.914V163.882h1.054q1.252,6.15,4.825,9.381a11.3,11.3,0,0,0,7.7,3.231,7.226,7.226,0,0,0,5.082-1.737,5.236,5.236,0,0,0,1.167-6.69,8.41,8.41,0,0,0-2.206-2.434,33.424,33.424,0,0,0-5.238-3,45.237,45.237,0,0,1-7.573-4.413,13.53,13.53,0,0,1-3.544-4.071,10.1,10.1,0,0,1-1.239-4.954,10.48,10.48,0,0,1,3.388-7.858,11.853,11.853,0,0,1,8.541-3.245,14.542,14.542,0,0,1,3.644.456,18.252,18.252,0,0,1,3.26,1.267,7.68,7.68,0,0,0,2.69.926,1.521,1.521,0,0,0,1.167-.456,5.248,5.248,0,0,0,.8-2.192Z" transform="translate(-74.914 -138.088)" fill="#fff"/></g><g transform="translate(66.387 35.801)"><path d="M280.434,138.088l.313,12.868h-1.167a13.181,13.181,0,0,0-4.057-7.787,10.2,10.2,0,0,0-6.99-2.947,6.546,6.546,0,0,0-4.6,1.552,4.724,4.724,0,0,0-1.694,3.573,4.343,4.343,0,0,0,.6,2.277,9.673,9.673,0,0,0,2.648,2.648,59.591,59.591,0,0,0,6.178,3.331q6.776,3.331,9.139,6.292a10.646,10.646,0,0,1,2.334,6.776A10.957,10.957,0,0,1,279.366,175a13.56,13.56,0,0,1-9.58,3.488,15.487,15.487,0,0,1-3.445-.37,26.062,26.062,0,0,1-4.071-1.395,6.164,6.164,0,0,0-2.249-.57,2.789,2.789,0,0,0-1.566.57,3.981,3.981,0,0,0-1.338,1.736h-1.053V163.882h1.053q1.253,6.15,4.826,9.381a11.3,11.3,0,0,0,7.7,3.231,7.226,7.226,0,0,0,5.082-1.737,5.236,5.236,0,0,0,1.167-6.69,8.414,8.414,0,0,0-2.206-2.434,33.422,33.422,0,0,0-5.238-3,45.237,45.237,0,0,1-7.573-4.413,13.534,13.534,0,0,1-3.544-4.071,10.1,10.1,0,0,1-1.238-4.954,10.48,10.48,0,0,1,3.388-7.858,11.852,11.852,0,0,1,8.541-3.245,14.542,14.542,0,0,1,3.644.456,18.266,18.266,0,0,1,3.26,1.267,7.681,7.681,0,0,0,2.69.926,1.522,1.522,0,0,0,1.167-.456,5.248,5.248,0,0,0,.8-2.192Z" transform="translate(-256.063 -138.088)" fill="#64a175"/></g></g></g></svg>