<svg xmlns="http://www.w3.org/2000/svg" width="18.194" height="17.243" viewBox="0 0 18.194 17.243">
  <g id="tabs" transform="translate(-0.027 -0.776)">
    <g id="Camera" transform="translate(-0.219 0.313)">
      <rect id="Rectangle_252" data-name="Rectangle 252" width="18" height="17" transform="translate(0.391 0.464)" fill="none"/>
      <path id="Path_110" data-name="Path 110" d="M9.1,11.372A2.274,2.274,0,1,0,6.823,9.1,2.281,2.281,0,0,0,9.1,11.372Zm0-6.823A4.549,4.549,0,1,1,4.549,9.1,4.562,4.562,0,0,1,9.1,4.549ZM15.92,17.057H2.274a2.245,2.245,0,0,1-1.592-.682A2.245,2.245,0,0,1,0,14.783V4.549A2.281,2.281,0,0,1,2.274,2.274H4.094L5.8.569A1.883,1.883,0,0,1,7.164,0h3.98a1.826,1.826,0,0,1,1.251.569L14.1,2.274H15.92a2.281,2.281,0,0,1,2.274,2.274V14.783A2.281,2.281,0,0,1,15.92,17.057Z" transform="translate(0.246 0.65)" fill="#fff" fill-rule="evenodd"/>
    </g>
  </g>
</svg>
