<svg xmlns="http://www.w3.org/2000/svg" width="24.877" height="27.139" viewBox="0 0 24.877 27.139">
    <g transform="translate(-628.306 -808.861)">
        <path d="M9,18.523V28.7a1.131,1.131,0,0,0,.734,1.06l9.046,3.392a1.141,1.141,0,0,0,.792,0l9.046-3.392a1.131,1.131,0,0,0,.736-1.06V18.523a1.131,1.131,0,0,0-.734-1.06l-9.046-3.392a1.141,1.141,0,0,0-.792,0L9.736,17.464A1.131,1.131,0,0,0,9,18.523Zm18.093,9.393-6.785,2.544V22.7l6.785-2.544ZM19.177,16.338,25,18.523l-5.826,2.185-5.826-2.185Zm-7.916,3.816L18.046,22.7v7.762l-6.785-2.544Z"
              transform="translate(621.567 798.253)" />
        <path d="M8.131,16.654a1.131,1.131,0,0,0,1.131-1.131V13.262h2.262a1.131,1.131,0,1,0,0-2.262H8.131A1.131,1.131,0,0,0,7,12.131v3.392A1.131,1.131,0,0,0,8.131,16.654Z"
              transform="translate(621.306 797.861)" />
        <path d="M25.131,13.262h2.262v2.262a1.131,1.131,0,1,0,2.262,0V12.131A1.131,1.131,0,0,0,28.523,11H25.131a1.131,1.131,0,1,0,0,2.262Z"
              transform="translate(623.529 797.861)" />
        <path d="M8.131,35.654h3.392a1.131,1.131,0,1,0,0-2.262H9.262V31.131a1.131,1.131,0,0,0-2.262,0v3.392A1.131,1.131,0,0,0,8.131,35.654Z"
              transform="translate(621.306 800.346)" />
        <path d="M28.523,30a1.131,1.131,0,0,0-1.131,1.131v2.262H25.131a1.131,1.131,0,1,0,0,2.262h3.392a1.131,1.131,0,0,0,1.131-1.131V31.131A1.131,1.131,0,0,0,28.523,30Z"
              transform="translate(623.529 800.346)" />
    </g>
</svg>
